<?xml version="1.0" encoding="UTF-8" standalone="no"?>
<!-- Created with Inkscape (http://www.inkscape.org/) -->

<svg
   xmlns:dc="http://purl.org/dc/elements/1.1/"
   xmlns:cc="http://creativecommons.org/ns#"
   xmlns:rdf="http://www.w3.org/1999/02/22-rdf-syntax-ns#"
   xmlns:svg="http://www.w3.org/2000/svg"
   xmlns="http://www.w3.org/2000/svg"
   xmlns:sodipodi="http://sodipodi.sourceforge.net/DTD/sodipodi-0.dtd"
   xmlns:inkscape="http://www.inkscape.org/namespaces/inkscape"
   width="210mm"
   height="297mm"
   viewBox="0 0 210 297"
   version="1.1"
   id="svg8"
   inkscape:version="0.92.2 (5c3e80d, 2017-08-06)"
   sodipodi:docname="logo.svg"
   inkscape:export-filename="C:\Users\Nayte\Desktop\Nueva carpeta\imagen\logo.svg.png"
   inkscape:export-xdpi="96"
   inkscape:export-ydpi="96">
  <defs
     id="defs2">
    <inkscape:perspective
       sodipodi:type="inkscape:persp3d"
       inkscape:vp_x="-32.474539 : 94.415612 : 1"
       inkscape:vp_y="0 : 563.89983 : 0"
       inkscape:vp_z="31.969404 : 93.659659 : 1"
       inkscape:persp3d-origin="0.12540949 : 66.502571 : 1"
       id="perspective3699" />
    <filter
       inkscape:label="Glowing Bubble"
       inkscape:menu="Ridges"
       inkscape:menu-tooltip="Bubble effect with refraction and glow"
       x="-0.25"
       y="-0.25"
       width="1.5"
       height="1.5"
       style="color-interpolation-filters:sRGB;"
       id="filter6312">
      <feGaussianBlur
         stdDeviation="1"
         result="result1"
         id="feGaussianBlur6288" />
      <feGaussianBlur
         stdDeviation="10"
         result="result6"
         in="result1"
         id="feGaussianBlur6290" />
      <feComposite
         operator="atop"
         in="result6"
         in2="result1"
         result="result8"
         id="feComposite6292" />
      <feComposite
         operator="xor"
         result="fbSourceGraphic"
         in="result6"
         in2="result8"
         id="feComposite6294" />
      <feColorMatrix
         result="fbSourceGraphicAlpha"
         in="fbSourceGraphic"
         values="0 0 0 -1 0 0 0 0 -1 0 0 0 0 -1 0 0 0 0 2 0 "
         id="feColorMatrix6296" />
      <feGaussianBlur
         result="result0"
         in="fbSourceGraphicAlpha"
         stdDeviation="1"
         id="feGaussianBlur6298" />
      <feSpecularLighting
         specularExponent="35"
         specularConstant="1.5"
         surfaceScale="-2"
         lighting-color="rgb(255,255,255)"
         result="result1"
         in="result0"
         id="feSpecularLighting6302">
        <feDistantLight
           azimuth="230"
           elevation="60"
           id="feDistantLight6300" />
      </feSpecularLighting>
      <feComposite
         operator="in"
         result="result2"
         in="result1"
         in2="fbSourceGraphicAlpha"
         id="feComposite6304" />
      <feComposite
         k3="1"
         k2="1"
         operator="arithmetic"
         result="result4"
         in="fbSourceGraphic"
         in2="result2"
         id="feComposite6306" />
      <feComposite
         operator="atop"
         in="result9"
         in2="result4"
         result="result91"
         id="feComposite6308" />
      <feBlend
         mode="multiply"
         in2="result91"
         id="feBlend6310" />
    </filter>
    <filter
       inkscape:label="Glowing Bubble"
       inkscape:menu="Ridges"
       inkscape:menu-tooltip="Bubble effect with refraction and glow"
       x="-0.25"
       y="-0.25"
       width="1.5"
       height="1.5"
       style="color-interpolation-filters:sRGB;"
       id="filter6338">
      <feGaussianBlur
         stdDeviation="1"
         result="result1"
         id="feGaussianBlur6314" />
      <feGaussianBlur
         stdDeviation="10"
         result="result6"
         in="result1"
         id="feGaussianBlur6316" />
      <feComposite
         operator="atop"
         in="result6"
         in2="result1"
         result="result8"
         id="feComposite6318" />
      <feComposite
         operator="xor"
         result="fbSourceGraphic"
         in="result6"
         in2="result8"
         id="feComposite6320" />
      <feColorMatrix
         result="fbSourceGraphicAlpha"
         in="fbSourceGraphic"
         values="0 0 0 -1 0 0 0 0 -1 0 0 0 0 -1 0 0 0 0 2 0 "
         id="feColorMatrix6322" />
      <feGaussianBlur
         result="result0"
         in="fbSourceGraphicAlpha"
         stdDeviation="1"
         id="feGaussianBlur6324" />
      <feSpecularLighting
         specularExponent="35"
         specularConstant="1.5"
         surfaceScale="-2"
         lighting-color="rgb(255,255,255)"
         result="result1"
         in="result0"
         id="feSpecularLighting6328">
        <feDistantLight
           azimuth="230"
           elevation="60"
           id="feDistantLight6326" />
      </feSpecularLighting>
      <feComposite
         operator="in"
         result="result2"
         in="result1"
         in2="fbSourceGraphicAlpha"
         id="feComposite6330" />
      <feComposite
         k3="1"
         k2="1"
         operator="arithmetic"
         result="result4"
         in="fbSourceGraphic"
         in2="result2"
         id="feComposite6332" />
      <feComposite
         operator="atop"
         in="result9"
         in2="result4"
         result="result91"
         id="feComposite6334" />
      <feBlend
         mode="multiply"
         in2="result91"
         id="feBlend6336" />
    </filter>
    <filter
       inkscape:label="Glowing Bubble"
       inkscape:menu="Ridges"
       inkscape:menu-tooltip="Bubble effect with refraction and glow"
       x="-0.25"
       y="-0.25"
       width="1.5"
       height="1.5"
       style="color-interpolation-filters:sRGB;"
       id="filter6364">
      <feGaussianBlur
         stdDeviation="1"
         result="result1"
         id="feGaussianBlur6340" />
      <feGaussianBlur
         stdDeviation="10"
         result="result6"
         in="result1"
         id="feGaussianBlur6342" />
      <feComposite
         operator="atop"
         in="result6"
         in2="result1"
         result="result8"
         id="feComposite6344" />
      <feComposite
         operator="xor"
         result="fbSourceGraphic"
         in="result6"
         in2="result8"
         id="feComposite6346" />
      <feColorMatrix
         result="fbSourceGraphicAlpha"
         in="fbSourceGraphic"
         values="0 0 0 -1 0 0 0 0 -1 0 0 0 0 -1 0 0 0 0 2 0 "
         id="feColorMatrix6348" />
      <feGaussianBlur
         result="result0"
         in="fbSourceGraphicAlpha"
         stdDeviation="1"
         id="feGaussianBlur6350" />
      <feSpecularLighting
         specularExponent="35"
         specularConstant="1.5"
         surfaceScale="-2"
         lighting-color="rgb(255,255,255)"
         result="result1"
         in="result0"
         id="feSpecularLighting6354">
        <feDistantLight
           azimuth="230"
           elevation="60"
           id="feDistantLight6352" />
      </feSpecularLighting>
      <feComposite
         operator="in"
         result="result2"
         in="result1"
         in2="fbSourceGraphicAlpha"
         id="feComposite6356" />
      <feComposite
         k3="1"
         k2="1"
         operator="arithmetic"
         result="result4"
         in="fbSourceGraphic"
         in2="result2"
         id="feComposite6358" />
      <feComposite
         operator="atop"
         in="result9"
         in2="result4"
         result="result91"
         id="feComposite6360" />
      <feBlend
         mode="multiply"
         in2="result91"
         id="feBlend6362" />
    </filter>
    <filter
       inkscape:label="Glowing Bubble"
       inkscape:menu="Ridges"
       inkscape:menu-tooltip="Bubble effect with refraction and glow"
       x="-0.25"
       y="-0.25"
       width="1.5"
       height="1.5"
       style="color-interpolation-filters:sRGB;"
       id="filter6390">
      <feGaussianBlur
         stdDeviation="1"
         result="result1"
         id="feGaussianBlur6366" />
      <feGaussianBlur
         stdDeviation="10"
         result="result6"
         in="result1"
         id="feGaussianBlur6368" />
      <feComposite
         operator="atop"
         in="result6"
         in2="result1"
         result="result8"
         id="feComposite6370" />
      <feComposite
         operator="xor"
         result="fbSourceGraphic"
         in="result6"
         in2="result8"
         id="feComposite6372" />
      <feColorMatrix
         result="fbSourceGraphicAlpha"
         in="fbSourceGraphic"
         values="0 0 0 -1 0 0 0 0 -1 0 0 0 0 -1 0 0 0 0 2 0 "
         id="feColorMatrix6374" />
      <feGaussianBlur
         result="result0"
         in="fbSourceGraphicAlpha"
         stdDeviation="1"
         id="feGaussianBlur6376" />
      <feSpecularLighting
         specularExponent="35"
         specularConstant="1.5"
         surfaceScale="-2"
         lighting-color="rgb(255,255,255)"
         result="result1"
         in="result0"
         id="feSpecularLighting6380">
        <feDistantLight
           azimuth="230"
           elevation="60"
           id="feDistantLight6378" />
      </feSpecularLighting>
      <feComposite
         operator="in"
         result="result2"
         in="result1"
         in2="fbSourceGraphicAlpha"
         id="feComposite6382" />
      <feComposite
         k3="1"
         k2="1"
         operator="arithmetic"
         result="result4"
         in="fbSourceGraphic"
         in2="result2"
         id="feComposite6384" />
      <feComposite
         operator="atop"
         in="result9"
         in2="result4"
         result="result91"
         id="feComposite6386" />
      <feBlend
         mode="multiply"
         in2="result91"
         id="feBlend6388" />
    </filter>
    <filter
       inkscape:label="Glowing Bubble"
       inkscape:menu="Ridges"
       inkscape:menu-tooltip="Bubble effect with refraction and glow"
       x="-0.25"
       y="-0.25"
       width="1.5"
       height="1.5"
       style="color-interpolation-filters:sRGB;"
       id="filter6416">
      <feGaussianBlur
         stdDeviation="1"
         result="result1"
         id="feGaussianBlur6392" />
      <feGaussianBlur
         stdDeviation="10"
         result="result6"
         in="result1"
         id="feGaussianBlur6394" />
      <feComposite
         operator="atop"
         in="result6"
         in2="result1"
         result="result8"
         id="feComposite6396" />
      <feComposite
         operator="xor"
         result="fbSourceGraphic"
         in="result6"
         in2="result8"
         id="feComposite6398" />
      <feColorMatrix
         result="fbSourceGraphicAlpha"
         in="fbSourceGraphic"
         values="0 0 0 -1 0 0 0 0 -1 0 0 0 0 -1 0 0 0 0 2 0 "
         id="feColorMatrix6400" />
      <feGaussianBlur
         result="result0"
         in="fbSourceGraphicAlpha"
         stdDeviation="1"
         id="feGaussianBlur6402" />
      <feSpecularLighting
         specularExponent="35"
         specularConstant="1.5"
         surfaceScale="-2"
         lighting-color="rgb(255,255,255)"
         result="result1"
         in="result0"
         id="feSpecularLighting6406">
        <feDistantLight
           azimuth="230"
           elevation="60"
           id="feDistantLight6404" />
      </feSpecularLighting>
      <feComposite
         operator="in"
         result="result2"
         in="result1"
         in2="fbSourceGraphicAlpha"
         id="feComposite6408" />
      <feComposite
         k3="1"
         k2="1"
         operator="arithmetic"
         result="result4"
         in="fbSourceGraphic"
         in2="result2"
         id="feComposite6410" />
      <feComposite
         operator="atop"
         in="result9"
         in2="result4"
         result="result91"
         id="feComposite6412" />
      <feBlend
         mode="multiply"
         in2="result91"
         id="feBlend6414" />
    </filter>
    <filter
       inkscape:label="Glowing Bubble"
       inkscape:menu="Ridges"
       inkscape:menu-tooltip="Bubble effect with refraction and glow"
       x="-0.25"
       y="-0.25"
       width="1.5"
       height="1.5"
       style="color-interpolation-filters:sRGB;"
       id="filter6442">
      <feGaussianBlur
         stdDeviation="1"
         result="result1"
         id="feGaussianBlur6418" />
      <feGaussianBlur
         stdDeviation="10"
         result="result6"
         in="result1"
         id="feGaussianBlur6420" />
      <feComposite
         operator="atop"
         in="result6"
         in2="result1"
         result="result8"
         id="feComposite6422" />
      <feComposite
         operator="xor"
         result="fbSourceGraphic"
         in="result6"
         in2="result8"
         id="feComposite6424" />
      <feColorMatrix
         result="fbSourceGraphicAlpha"
         in="fbSourceGraphic"
         values="0 0 0 -1 0 0 0 0 -1 0 0 0 0 -1 0 0 0 0 2 0 "
         id="feColorMatrix6426" />
      <feGaussianBlur
         result="result0"
         in="fbSourceGraphicAlpha"
         stdDeviation="1"
         id="feGaussianBlur6428" />
      <feSpecularLighting
         specularExponent="35"
         specularConstant="1.5"
         surfaceScale="-2"
         lighting-color="rgb(255,255,255)"
         result="result1"
         in="result0"
         id="feSpecularLighting6432">
        <feDistantLight
           azimuth="230"
           elevation="60"
           id="feDistantLight6430" />
      </feSpecularLighting>
      <feComposite
         operator="in"
         result="result2"
         in="result1"
         in2="fbSourceGraphicAlpha"
         id="feComposite6434" />
      <feComposite
         k3="1"
         k2="1"
         operator="arithmetic"
         result="result4"
         in="fbSourceGraphic"
         in2="result2"
         id="feComposite6436" />
      <feComposite
         operator="atop"
         in="result9"
         in2="result4"
         result="result91"
         id="feComposite6438" />
      <feBlend
         mode="multiply"
         in2="result91"
         id="feBlend6440" />
    </filter>
    <filter
       inkscape:label="Glowing Bubble"
       inkscape:menu="Ridges"
       inkscape:menu-tooltip="Bubble effect with refraction and glow"
       x="-0.25"
       y="-0.25"
       width="1.5"
       height="1.5"
       style="color-interpolation-filters:sRGB;"
       id="filter6468">
      <feGaussianBlur
         stdDeviation="1"
         result="result1"
         id="feGaussianBlur6444" />
      <feGaussianBlur
         stdDeviation="10"
         result="result6"
         in="result1"
         id="feGaussianBlur6446" />
      <feComposite
         operator="atop"
         in="result6"
         in2="result1"
         result="result8"
         id="feComposite6448" />
      <feComposite
         operator="xor"
         result="fbSourceGraphic"
         in="result6"
         in2="result8"
         id="feComposite6450" />
      <feColorMatrix
         result="fbSourceGraphicAlpha"
         in="fbSourceGraphic"
         values="0 0 0 -1 0 0 0 0 -1 0 0 0 0 -1 0 0 0 0 2 0 "
         id="feColorMatrix6452" />
      <feGaussianBlur
         result="result0"
         in="fbSourceGraphicAlpha"
         stdDeviation="1"
         id="feGaussianBlur6454" />
      <feSpecularLighting
         specularExponent="35"
         specularConstant="1.5"
         surfaceScale="-2"
         lighting-color="rgb(255,255,255)"
         result="result1"
         in="result0"
         id="feSpecularLighting6458">
        <feDistantLight
           azimuth="230"
           elevation="60"
           id="feDistantLight6456" />
      </feSpecularLighting>
      <feComposite
         operator="in"
         result="result2"
         in="result1"
         in2="fbSourceGraphicAlpha"
         id="feComposite6460" />
      <feComposite
         k3="1"
         k2="1"
         operator="arithmetic"
         result="result4"
         in="fbSourceGraphic"
         in2="result2"
         id="feComposite6462" />
      <feComposite
         operator="atop"
         in="result9"
         in2="result4"
         result="result91"
         id="feComposite6464" />
      <feBlend
         mode="multiply"
         in2="result91"
         id="feBlend6466" />
    </filter>
  </defs>
  <sodipodi:namedview
     id="base"
     pagecolor="#ffffff"
     bordercolor="#666666"
     borderopacity="1.0"
     inkscape:pageopacity="0.0"
     inkscape:pageshadow="2"
     inkscape:zoom="0.35"
     inkscape:cx="-515.45557"
     inkscape:cy="472.19415"
     inkscape:document-units="mm"
     inkscape:current-layer="layer1"
     showgrid="false"
     inkscape:window-width="1366"
     inkscape:window-height="705"
     inkscape:window-x="-8"
     inkscape:window-y="-8"
     inkscape:window-maximized="1" />
  <metadata
     id="metadata5">
    <rdf:RDF>
      <cc:Work
         rdf:about="">
        <dc:format>image/svg+xml</dc:format>
        <dc:type
           rdf:resource="http://purl.org/dc/dcmitype/StillImage" />
        <dc:title></dc:title>
      </cc:Work>
    </rdf:RDF>
  </metadata>
  <g
     inkscape:label="Capa 1"
     inkscape:groupmode="layer"
     id="layer1">
    <ellipse
       style="fill:#280b0b;stroke-width:0.14545693;filter:url(#filter6468)"
       id="path3889-2"
       cx="104.32144"
       cy="98.940483"
       rx="84.288689"
       ry="55.940468"
       transform="matrix(0.97576628,0,0,0.97803202,4.0400005,4.0634029)" />
    <ellipse
       style="fill:#ffffff;stroke-width:0.12557638;filter:url(#filter6442)"
       id="path3846-6"
       cx="104.63132"
       cy="98.644508"
       rx="74.372375"
       ry="48.540936"
       transform="matrix(0.97576628,0,0,0.97803202,4.0400005,4.0634029)" />
    <path
       style="fill:#a02c2c;stroke-width:0.07912447;filter:url(#filter6416)"
       id="path3821-9"
       d="m 54.687464,102.32918 c 0.5189,-0.55927 0.95083,-1.22016 1.47488,-1.77293 0.5275,-0.47173 1.08401,-0.878453 1.56703,-1.422243 0.58056,-0.64999 1.20477,-1.23412 1.81728,-1.83568 0.92991,-0.89508 1.81147,-1.86255 2.672,-2.85788 0.68827,-0.76619 1.41496,-1.46928 2.08467,-2.26176 0.58407,-0.66095 1.08661,-1.41451 1.59031,-2.16692 0.43417,-0.62964 0.82151,-1.30752 1.19177,-1.9966 0.2878,-0.66022 0.63612,-1.25028 1.03454,-1.81229 0.70926,-0.98904 1.28135,-2.10976 1.86158,-3.21652 0.68572,-1.30069 1.27166,-2.67682 1.85536,-4.05057 0.42226,-1.06668 0.97386,-2.03954 1.45635,-3.06306 0.30594,-0.66534 0.52868,-1.38104 0.81261,-2.05982 0.27989,-0.56753 0.57426,-1.12325 0.84321,-1.69905 0.10787,-0.0661 0.3107,-0.88788 0.37249,-0.93066 2.76747,-1.91628 2.38227,-2.9393 2.80444,-1.39835 8e-4,0.14582 0.0126,0.29213 0.002,0.43745 -0.0182,0.27126 -0.13405,0.97452 -0.17387,1.21425 -0.12878,0.77535 -0.26041,1.54892 -0.40588,2.3197 -0.32421,1.57012 -0.58666,3.14914 -0.7248,4.76122 -0.0835,1.39715 -0.11369,2.79654 -0.19497,4.19417 -0.0615,0.9114 -0.075,1.82568 -0.0926,2.73948 -0.0547,0.83305 -0.13341,1.6619 -0.17443,2.49659 -0.0289,0.83876 -0.0335,1.67849 -0.0335,2.51791 -2.6e-4,0.81136 -0.004,1.6227 -0.002,2.43406 -7.9e-4,0.71105 0.005,1.42206 0.008,2.13308 0.007,0.55665 -0.007,1.11339 0.005,1.66993 0.1049,1.30412 1.75026,-0.50511 -2.6872,1.70648 -0.0673,0.0335 0.008,-0.181 0.0253,-0.26848 0.11304,-0.56729 0.26265,-0.92485 0.45496,-1.49333 0.20163,-0.44125 0.39289,-0.89007 0.60492,-1.32376 1.11159,-2.27384 2.31046,-4.48789 3.45591,-6.73534 1.08009,-2.1192 2.14914,-4.24707 3.22509,-6.36954 3.08951,-6.12896 6.21698,-12.23014 9.66444,-18.05989 1.51898,-2.40669 2.91128,-5.03248 4.82141,-7.00759 0.22393,-0.23155 0.46582,-0.43488 0.69874,-0.65232 1.59473,-1.14178 3.19827,-2.53929 5.023296,-3.11152 0.37401,-0.11727 0.64952,-0.15877 1.02632,-0.23016 0.83086,-0.15664 1.65645,-0.0766 2.46528,0.18606 0.96715,0.29303 1.59862,1.16945 2.2547,2.03378 0.68425,0.8547 1.26854,1.81714 1.77404,2.84353 0.42669,0.80968 0.67295,1.66709 0.74072,2.62683 0.0498,1.07215 -0.14563,2.11674 -0.45532,3.10907 -0.3506,1.04135 -0.75007,1.8671 -1.37177,2.68897 -0.44216,0.54188 -0.92578,1.03161 -1.46529,1.41824 -1.05772,0.75803 -2.11641,1.51519 -3.19421,2.22823 -0.29507,0.19521 -1.48297,0.74376 -1.76286,0.87652 -1.757196,0.69795 -3.498076,1.46181 -5.273726,2.08592 -0.73147,0.24757 -1.48061,0.37809 -2.237,0.4083 -0.44202,-0.045 -0.66106,-0.49989 -0.87712,-0.91948 -0.0275,-0.0626 -0.0552,-0.1251 -0.0827,-0.18766 0,0 2.6112,-1.862 2.6112,-1.862 v 0 c 0.0242,0.0554 0.0482,0.11092 0.0724,0.16639 0.17362,0.34362 0.32157,0.64356 0.69138,0.60394 0.72183,-0.0452 1.43655,-0.18104 2.1345,-0.41904 1.753866,-0.60137 3.478896,-1.3285 5.199726,-2.05989 0.31377,-0.15597 0.63013,-0.30411 0.94129,-0.46791 0.28102,-0.14792 1.08033,-0.69239 0.83488,-0.46704 -0.55221,0.50697 -1.17535,0.88233 -1.76448,1.32051 -0.19929,0.14823 0.40256,-0.28899 0.59497,-0.45064 0.16194,-0.13608 0.31537,-0.28757 0.46669,-0.44139 0.13276,-0.13495 0.25659,-0.28288 0.38492,-0.42432 0.16749,-0.20799 0.44089,-0.53488 0.59345,-0.77037 0.34866,-0.53828 0.55286,-1.18436 0.81642,-1.78593 0.32359,-0.93809 0.54412,-1.92193 0.51124,-2.9538 -0.0445,-0.9041 -0.278,-1.71495 -0.68086,-2.47402 -0.47101,-1.01949 -1.03472,-1.96327 -1.70414,-2.79731 -0.65631,-0.83476 -1.24189,-1.57706 -2.19411,-1.83337 -0.78654,-0.21206 -1.58422,-0.25002 -2.38089,-0.082 -0.522376,0.11275 -1.025456,0.24866 -1.526116,0.47213 -0.89073,0.39759 -3.14442,1.89534 0.50169,-0.6421 -0.70321,0.60661 -0.88851,0.72358 -1.54336,1.4828 -1.60851,1.86488 -2.9122,4.08889 -4.2757,6.21903 -1.35512,2.22436 -1.6809,2.71351 -2.99832,5.07473 -2.37583,4.25818 -4.59741,8.64566 -6.81074,13.03531 -1.48784,2.99171 -2.97115,5.98693 -4.4418,8.99175 -0.63608,1.29964 -1.28286,2.59154 -1.89715,3.90722 -0.1907,0.40844 -0.36578,0.8278 -0.54866,1.24171 -0.088,0.28974 -0.18079,0.57735 -0.26413,0.86923 -0.0449,0.15754 -0.0872,0.31663 -0.12073,0.4785 -0.0145,0.07 0.0268,0.17784 -0.0231,0.21509 -4.16502,3.10742 -2.7846,3.02359 -2.68719,1.69546 0.0112,-0.55855 -8e-4,-1.11727 0.005,-1.67593 0.003,-0.71424 0.009,-1.4285 0.007,-2.14277 0.002,-0.81117 -0.004,-1.62228 -0.002,-2.43343 0.005,-0.84703 0.009,-1.69422 0.0393,-2.5406 0.0257,-0.83025 0.0817,-1.65634 0.16961,-2.48004 0.007,-0.92612 0.0515,-1.85137 0.10793,-2.77474 0.098,-1.40535 0.16725,-2.8108 0.21921,-4.22005 0.13935,-1.62753 0.37947,-3.22457 0.71812,-4.80721 0.20289,-1.07648 0.44595,-2.32507 0.54651,-3.42124 0.0104,-0.11403 0.004,-0.22948 0.006,-0.34423 0.31359,-1.2402 0.0285,-0.16675 2.59549,-1.90606 0.0408,-0.0276 -0.0553,0.0932 -0.0777,0.14376 -0.11517,0.26087 -0.16772,0.5573 -0.31278,0.79876 -0.25143,0.59075 -0.55021,1.14852 -0.84946,1.70313 -0.31924,0.66657 -0.52689,1.40095 -0.83211,2.07773 -0.47859,1.03932 -1.05666,2.00145 -1.49411,3.07049 -0.59781,1.37221 -1.1683,2.76622 -1.84934,4.07924 -0.56586,1.10801 -1.12493,2.22931 -1.8031,3.2378 -0.76229,1.16047 0.24885,-0.35391 -0.45614,0.6306 -0.24092,0.33643 -0.38441,0.75729 -0.57614,1.13516 -0.37906,0.69863 -0.76341,1.39526 -1.19592,2.04524 -0.52307,0.74287 -0.99052,1.54832 -1.59038,2.20526 -0.6685,0.81527 -1.38268,1.54969 -2.10991,2.28161 -0.85439,0.99331 -1.71996,1.97316 -2.64158,2.87058 -0.59265,0.60887 -1.21204,1.17678 -1.79858,1.79397 -0.46781,0.58094 -0.99099,1.04947 -1.56739,1.45575 -0.54199,0.51223 -0.98423,1.130433 -1.44414,1.750643 0,0 -2.78701,1.3975 -2.78701,1.3975 z"
       inkscape:connector-curvature="0"
       transform="matrix(0.97576628,0,0,0.97803202,4.0400005,4.0634029)" />
    <path
       style="fill:#a02c2c;stroke-width:0.07912447;filter:url(#filter6390)"
       id="path3823-4"
       d="m 89.188964,91.425927 c 0.44438,0.67071 1.04306,1.09114 1.68764,1.39291 0.71548,0.26188 1.4616,0.30265 2.20206,0.32296 0.56499,0.0652 1.08939,-0.0879 1.60804,-0.35276 0.97485,-0.46268 2.38089,-1.58037 -1.90462,1.42293 -0.32881,0.23043 0.3454,-0.28109 0.47496,-0.43288 0.24951,-0.43229 0.26393,-0.96814 0.28923,-1.47976 0.0416,-0.64778 -0.01,-1.28518 -0.0794,-1.92553 -0.0576,-0.59556 -0.069,-0.96004 -0.54143,-1.21502 -0.0607,-0.005 -0.12224,-0.0307 -0.18206,-0.0168 -0.20118,0.0464 -0.40219,0.28672 -0.57771,0.40512 -0.0707,0.0477 -0.28514,0.18487 -0.21554,0.13479 0.79055,-0.56864 1.58579,-1.12716 2.37868,-1.69074 -0.4292,0.3404 -0.86731,0.65739 -1.26279,1.05757 -0.41612,0.52553 -0.86244,1.00921 -1.31354,1.48712 -0.3369,0.3035 -0.62633,0.66392 -0.88758,1.06334 -0.20969,0.34651 -0.29809,0.76418 -0.29747,1.19298 0.11272,0.43736 0.43429,0.73123 0.73424,0.9649 0.40576,0.27962 0.86044,0.34397 1.31509,0.37506 0.30835,-0.0337 0.64076,0.079 0.94707,0.0119 0.13922,-0.0306 0.2849,-0.15125 0.40336,-0.23503 0.92932,-0.56451 2.34571,-1.56486 -1.90695,1.38236 -0.13859,0.0961 0.25754,-0.24566 0.48929,-0.51578 0.30155,-0.35135 0.58123,-0.71482 0.83125,-1.12405 0.0353,-0.0683 0.0735,-0.13438 0.10565,-0.20494 0.0447,-0.0978 0.13197,-0.46798 0.16406,-0.4866 2.78184,-1.6144 2.93151,-2.68721 2.69346,-1.3231 -0.0805,0.47741 -0.0994,0.96557 -0.118,1.45136 0.012,0.48605 -0.15183,0.9572 0.26824,1.1891 0.39043,0.16055 0.77812,0.1071 1.17347,0.0316 0.0803,-0.0142 0.16053,-0.0293 0.24095,-0.0425 0.26674,-0.0442 0.22245,-0.003 0.46315,-0.15668 0.0746,-0.0477 0.28913,-0.21142 0.21617,-0.16001 -2.3214,1.63604 -3.10605,2.26179 -2.12195,1.48464 0.34091,-0.30131 0.71204,-0.55382 0.95105,-0.9905 0.17041,-0.49684 0.17983,-1.0484 0.28345,-1.57059 0.0933,-0.48159 0.29464,-0.90338 0.46361,-1.34568 0.55552,-1.58076 0.63177,-1.05643 2.977246,-2.21654 0.0471,-0.0233 0.12088,0.45247 0.12123,0.45441 0.0553,0.54499 0.0344,1.09639 0.0306,1.64426 7.9e-4,0.52048 -0.0315,1.0404 0.0413,1.55498 0.043,0.53497 0.18327,0.85318 0.49364,1.21324 0.35328,0.34049 0.78087,0.48653 1.19509,0.66455 0.18015,0.0645 0.40932,0.18955 0.59589,0.0644 0.0418,-0.028 0.1437,-0.15144 0.1021,-0.12314 -2.49482,1.6966 -2.88084,2.78924 -2.37549,1.50203 0.1451,-0.77336 0.12674,-1.57946 0.12804,-2.36918 0.0189,-1.1121 0.44083,-2.12553 0.92176,-3.03571 0.38203,-0.65365 0.75675,-1.31117 1.03911,-2.04083 0.05,-0.20295 0.14448,-0.40448 0.16902,-0.61816 0.002,-0.0309 -0.0263,-0.0803 -0.002,-0.0939 2.78457,-1.66772 2.64382,-2.78729 2.76244,-1.365 -0.002,0.51295 2e-4,1.02075 0.0427,1.53115 0.0769,0.81635 0.32225,1.54538 0.64465,2.25404 0.37603,0.85389 0.64515,1.75894 0.90191,2.67471 0.46008,1.27049 0.66659,2.64324 0.92385,3.99137 0.27401,1.43389 0.42728,2.889233 0.36428,4.361643 -0.12591,1.70299 -0.46353,3.36351 -0.99889,4.94004 -0.14097,0.41512 -0.30717,0.8163 -0.46076,1.22446 -0.87609,2.03107 -2.08087,4.6015 -3.68034,5.86679 -1.23318,0.97553 -2.53295,1.81467 -3.7994,2.722 -4.415236,2.17742 -9.134956,3.22492 -13.834966,3.91515 -1.31205,0.19269 -2.62939,0.32517 -3.94409,0.48775 -5.32758,0.60832 -10.69101,0.753 -16.02545,0.18987 -3.05381,-0.32238 -4.03107,-0.57359 -7.02339,-1.14822 -3.17321,-0.71952 -6.30865,-1.72746 -9.35278,-3.05704 -2.65537,-1.1598 -5.21957,-2.58793 -7.76885,-4.06039 -2.10202,-1.46 -4.41487,-2.72269 -6.1543,-4.85156 -0.38615,-0.63913 -0.66011,-1.22584 -0.28378,-1.95545 0.97387,-1.19921 2.41846,-1.93667 3.52377,-2.71422 0.50155,-0.35282 1.04489,-0.615 1.57368,-0.89577 0.83177,-0.44234 1.69557,-0.68043 2.59312,-0.75871 1.05126,-0.13409 1.93965,0.0464 2.96232,0.30197 0.79363,0.26829 1.57679,0.61787 2.31745,1.06494 0.54267,0.32756 1.07753,0.76471 1.58681,1.15565 2.24745,1.67943 4.56045,3.20875 6.88072,4.72461 0.99687,0.69629 2.05906,1.20962 3.15238,1.61256 0.47608,0.12302 0.95576,0.22262 1.43624,0.3206 0.68484,0.1045 1.37696,0.10685 2.0659,0.12264 1.20567,0.0223 2.41151,0.0169 3.6172,0.003 0.39389,0.006 0.78262,0.002 1.17356,-0.0551 0,0 -2.39716,2.19851 -2.39716,2.19851 v 0 c -0.38642,0.0167 -0.77232,0.0132 -1.15899,0.007 -1.20521,-0.0125 -2.41043,-0.0139 -3.61569,-0.009 -0.71376,-0.002 -1.43271,0.0124 -2.1396,-0.13082 -0.48435,-0.11048 -0.97715,-0.18244 -1.44605,-0.37552 -1.06479,-0.46332 -2.09005,-1.04329 -3.05624,-1.77226 -2.29012,-1.59401 -4.59504,-3.15599 -6.89551,-4.7266 -1.24744,-0.86241 -2.52393,-1.6758 -3.93139,-2.05251 -0.99173,-0.23728 -1.92375,-0.34862 -2.93373,-0.19987 -0.86815,0.11583 -1.70749,0.38942 -2.50927,0.8266 -0.17583,0.0958 -0.35277,0.1885 -0.52749,0.28743 -0.17767,0.1006 -0.35494,0.20254 -0.52956,0.31109 -0.69597,0.43265 -2.9008,2.02128 1.57921,-1.19025 0.19656,-0.14089 -0.68031,0.51575 -0.55773,0.48496 -0.0511,0.0569 -0.20813,0.22138 -0.2489,0.30351 -0.19796,0.39873 0.12206,0.89252 0.27906,1.20867 1.58204,2.17837 3.78343,3.52183 5.78019,5.00094 2.03936,1.24747 2.60359,1.64431 4.78224,2.74697 3.91571,1.9818 7.98035,3.49714 12.14377,4.42835 2.93976,0.5825 3.95168,0.84612 6.95176,1.17845 5.3171,0.58899 10.6661,0.44597 15.97521,-0.20298 1.32822,-0.17981 2.65954,-0.32725 3.98466,-0.53941 4.79881,-0.76831 9.62342,-1.92795 14.088766,-4.30648 -0.29492,0.22918 -1.05536,1.06419 -0.8848,0.68754 0.22257,-0.49146 0.72605,-0.68068 1.05665,-1.06704 1.1099,-1.29712 1.89895,-2.9856 2.61663,-4.63141 0.15401,-0.3978 0.32169,-0.78787 0.46209,-1.19338 0.52858,-1.5268 0.83795,-3.13443 0.94282,-4.78889 0.0932,-1.44401 -0.0205,-2.87521 -0.2921,-4.285373 -0.2558,-1.33123 -0.49188,-2.6785 -0.9612,-3.92473 -0.24748,-0.89555 -0.50745,-1.78268 -0.87656,-2.61542 -0.34066,-0.7472 -0.62024,-1.50956 -0.72016,-2.36796 -0.0594,-0.51153 -0.0842,-1.0167 -0.0748,-1.53414 -0.0109,-1.38113 -0.0291,-0.0413 2.71613,-1.81997 0.017,-0.011 -0.0385,-0.0393 -0.0537,-0.0249 -0.13541,0.12678 -0.09,0.50563 -0.19098,0.65241 -0.26129,0.77017 -0.63447,1.46085 -1.04633,2.11904 -0.48997,0.83171 -0.93459,1.77341 -0.98366,2.82566 -2.7e-4,0.81752 0.013,1.64016 -0.0685,2.45279 -0.24386,1.81479 -2.22181,2.8521 -3.50928,2.23669 -0.45482,-0.18511 -0.905126,-0.40146 -1.271336,-0.79796 -0.32584,-0.39678 -0.54528,-0.83333 -0.59386,-1.40967 -0.0847,-0.5391 -0.0685,-1.07798 -0.0572,-1.6258 0.004,-0.52312 0.0129,-1.04773 -0.0171,-1.56987 -0.16809,-1.46986 -0.75774,0.22256 2.560216,-2.06162 0.0322,-0.0222 -0.064,0.0482 -0.088,0.083 -0.0784,0.11367 -0.13741,0.29446 -0.18702,0.42391 -0.14183,0.45151 -0.36793,0.84329 -0.47509,1.31133 -0.16789,0.52208 -0.15843,1.08506 -0.2581,1.62843 -0.195596,0.59609 -0.501876,0.80992 -0.903716,1.17563 -1.26172,1.00623 -2.468,2.29335 -3.98801,2.44881 -0.44384,0.0586 -0.89499,0.0281 -1.29869,-0.23295 -0.4865,-0.44916 -0.43195,-0.8374 -0.41657,-1.53458 0.007,-0.49828 0.0255,-0.99697 0.0808,-1.49107 0.17304,-1.42014 -0.0124,-0.19849 2.77523,-1.86576 0.0255,-0.0152 -0.0371,0.0538 -0.05,0.085 -0.0891,0.21575 -0.1132,0.46541 -0.22438,0.66921 -0.22948,0.43855 -0.47861,0.84681 -0.81213,1.17283 -0.94848,1.39572 -2.38088,2.13069 -3.7049,2.87793 -0.46802,0.17534 -0.95332,0.11316 -1.43643,0.0798 -0.49301,-0.0623 -0.97384,-0.19532 -1.39714,-0.53343 -0.37254,-0.32166 -0.73656,-0.70196 -0.88735,-1.25269 -0.0419,-0.48921 0.0316,-0.98867 0.21168,-1.42861 0.23671,-0.44651 0.519,-0.84202 0.86798,-1.15925 0.47134,-0.44408 0.92118,-0.93262 1.32649,-1.46858 0.3619,-0.45824 0.79565,-0.77745 1.23233,-1.11287 0.91807,-0.66197 1.83445,-1.32759 2.75421,-1.98594 0.36627,-0.26217 0.73691,-0.48024 1.15009,-0.23505 0.48269,0.37597 0.63417,0.82418 0.67626,1.52149 0.0755,0.65963 0.14042,1.31326 0.10278,1.98205 -0.003,0.56819 -0.0233,1.14609 -0.20233,1.67773 -0.11642,0.27042 -0.22112,0.41213 -0.43722,0.56779 -1.15976,0.8354 -2.06206,1.69818 -3.24774,2.20608 -0.54664,0.20913 -1.09067,0.30528 -1.66416,0.22987 -0.76259,-0.0443 -1.529,-0.11524 -2.25509,-0.43424 -0.67702,-0.36124 -1.29983,-0.83612 -1.79788,-1.52234 0,0 2.57672,-1.92194 2.57672,-1.92194 z"
       inkscape:connector-curvature="0"
       transform="matrix(0.97576628,0,0,0.97803202,4.0400005,4.0634029)" />
    <path
       style="fill:#a02c2c;stroke-width:0.07912447;filter:url(#filter6364)"
       id="path3827-3"
       d="m 105.61022,73.083007 c 0.73474,-0.29385 1.49933,-0.4336 2.26389,-0.54128 0.54987,-0.0754 1.1031,-0.0778 1.65549,-0.0808 0.0879,2.7e-4 0.1765,-0.0131 0.26358,0.002 0.19883,0.033 0.38846,0.12483 0.58385,0.18132 0.3281,0.0949 0.63865,0.20787 0.95785,0.34289 0.72241,0.35695 1.48338,0.51157 2.24163,0.69521 0.76754,0.2264 1.56464,0.17539 2.33339,0.36903 0.71891,0.22641 1.45477,0.33247 2.19295,0.3972 0.70875,0.0172 1.39571,0.25749 2.0912,0.40456 0.49852,0.1027 0.98287,0.26502 1.48674,0.3326 0.45357,0.0515 0.90934,0.051 1.36434,0.0556 0.42153,-1.7e-4 0.86087,0.0623 1.24029,-0.2039 -0.81347,0.57136 -1.62621,1.14439 -2.44043,1.71409 -0.0512,0.0359 0.10131,-0.074 0.15126,-0.11242 0.16179,-0.12455 0.30328,-0.28001 0.46808,-0.39911 0.91601,-0.66203 1.83538,-1.31686 2.75307,-1.97526 -4.12243,3.01872 -2.79171,2.25343 -2.04498,1.3017 0.1906,-0.24291 0.37261,-0.49479 0.56479,-0.73597 0.43489,-0.4575 0.79778,-1.00175 1.1601,-1.54454 0.28499,-0.36083 0.48088,-0.766 0.61458,-1.23927 0.15137,-0.44609 0.21883,-0.91738 0.25495,-1.39617 0.0307,-0.44257 0.0387,-0.63942 -0.32867,-0.741 -0.40572,0.0267 -0.76271,0.20816 -1.09836,0.4834 4.19739,-3.56946 2.50081,-1.80662 1.60435,-0.85161 -0.34637,0.31917 -0.63112,0.68903 -0.79992,1.18393 -0.162,0.44478 -0.22398,0.92641 -0.33587,1.39055 -0.12601,0.49555 -0.25284,0.99023 -0.37497,1.48744 -0.19225,0.6239 -0.49414,1.17856 -0.71073,1.78902 -0.22522,0.63263 -0.42593,1.27548 -0.60862,1.92842 -0.13904,0.44633 -0.24562,0.90536 -0.37524,1.35582 -0.14987,0.50433 -0.38768,0.95538 -0.5936,1.42516 -0.18665,0.36079 -0.31287,0.7646 -0.42321,1.16924 -0.10012,0.35147 -0.20895,0.69459 -0.27619,1.0587 0,0 -2.70432,1.63193 -2.70432,1.63193 v 0 c 0.0486,-0.37843 0.1182,-0.75015 0.26572,-1.09084 0.0873,-0.43726 0.22039,-0.86203 0.38843,-1.26057 0.23779,-0.42066 0.4122,-0.89784 0.62018,-1.34195 0.11127,-0.46736 0.26502,-0.91641 0.38243,-1.38199 0.21896,-0.63871 0.35881,-1.31883 0.61458,-1.94121 0.19078,-0.61564 0.44295,-1.18195 0.71282,-1.74904 0.11735,-0.49814 0.23246,-0.99428 0.36374,-1.48572 0.12177,-0.4664 0.17715,-0.95275 0.33517,-1.403 0.12843,-0.56647 0.36027,-1.01587 0.738,-1.38164 0.23085,-0.20766 0.41592,-0.44613 0.62075,-0.68699 0.81925,-0.96337 2.70084,-0.4339 2.89053,-2.18647 0.39921,-0.23121 0.82471,-0.38501 1.26329,-0.2309 0.38523,0.23841 0.56927,0.61539 0.51653,1.16107 -0.0256,0.50673 -0.0687,1.01494 -0.21981,1.49162 -0.16549,0.51315 -0.2334,0.95696 -0.57354,1.36712 -0.39681,0.51475 -0.71097,1.12723 -1.16193,1.57783 -1.33707,1.49678 -1.05945,2.00964 -3.61645,3.1868 0.79328,-0.57285 1.58508,-1.14889 2.37987,-1.71857 0.0593,-0.0425 -0.11425,0.0935 -0.17311,0.13684 -0.15971,0.11746 -0.2754,0.26918 -0.43626,0.38349 -0.91109,0.64756 -1.82491,1.28912 -2.73737,1.93368 -0.42783,0.11139 -0.86008,0.0943 -1.29549,0.086 -0.46188,-0.004 -0.92457,-0.02 -1.38329,-0.0926 -0.50062,-0.0895 -0.98683,-0.25675 -1.48576,-0.35841 -0.68587,-0.16605 -1.3691,-0.36779 -2.07203,-0.3779 -0.73924,-0.0909 -1.47379,-0.22367 -2.1983,-0.43076 -0.77637,-0.13273 -1.56465,-0.16207 -2.33187,-0.3787 -0.77124,-0.17724 -1.53488,-0.38418 -2.27229,-0.72405 -0.57274,-0.21479 -1.16337,-0.43724 -1.76724,-0.41529 -0.54057,0.005 -1.08172,0.0225 -1.61927,0.0993 -0.76326,0.11786 -1.52237,0.28624 -2.24642,0.61963 0,0 2.36712,-2.28464 2.36712,-2.28464 z"
       inkscape:connector-curvature="0"
       transform="matrix(0.97576628,0,0,0.97803202,4.0400005,4.0634029)" />
    <path
       style="fill:#a02c2c;stroke-width:0.07912447;filter:url(#filter6338)"
       id="path3829-8"
       d="m 115.06697,69.166367 c -0.10102,0.74499 -0.23472,1.48061 -0.31481,2.23 -0.0503,0.6 -0.20493,1.1451 -0.42652,1.67606 -0.26039,0.54475 -0.36083,1.14982 -0.44895,1.76409 -0.13305,0.91468 -0.2797,1.82746 -0.48522,2.72149 -0.34047,1.17485 -0.42676,2.41795 -0.53674,3.64872 -0.06,0.98058 -0.1919,1.94362 -0.36901,2.90049 -0.15053,0.72517 -0.20767,1.46808 -0.23664,2.21361 -0.0276,0.82064 -0.0243,1.64242 -0.0272,2.46364 0.0102,1.13491 0.11923,2.25156 0.35277,3.34809 0.21581,0.76517 0.43108,1.54895 0.92084,2.10813 0.37732,0.39075 0.78639,0.73437 1.24167,0.96638 0.45137,0.17578 0.9034,0.32169 1.37357,0.39296 0.54649,0.0581 1.09607,0.0555 1.64417,0.0578 0.62218,-0.0186 1.24819,0.0413 1.86732,-0.0462 0.0978,-0.0158 0.19605,-0.0274 0.29329,-0.0475 0.18932,-0.0392 0.4647,-0.10973 0.64253,-0.20096 0.10497,-0.0539 0.39943,-0.26847 0.30104,-0.19807 -2.56526,1.83525 -2.88094,2.09489 -1.86059,1.28771 0.68088,-0.5739 1.32587,-1.21289 1.94212,-1.88968 0.45536,-0.47442 0.72595,-1.12299 1.02035,-1.74762 0.24495,-0.44072 0.44598,-0.86122 0.35537,-1.40411 -0.10257,-0.51893 -0.34455,-0.94327 -0.58727,-1.37106 -0.29506,-0.3929 -0.65274,-0.72486 -1.03292,-0.98159 -0.26047,-0.11778 -0.56271,-0.29349 -0.84977,-0.26478 -0.0503,0.005 -0.34686,0.14017 -0.39193,0.16006 -0.8571,0.717 -2.17493,1.53628 2.08342,-1.46033 0.0606,-0.0427 -0.11606,0.096 -0.17297,0.14592 -0.11203,0.0983 -0.2212,0.20165 -0.33191,0.30225 -0.31093,0.28291 -0.56034,0.64292 -0.8471,0.96031 -0.37378,0.39402 -0.60197,0.90396 -0.80156,1.44814 -0.1778,0.53367 -0.21671,1.11134 -0.2417,1.68178 -0.0361,0.56571 0.0899,1.12099 0.25535,1.64297 0.11964,0.47903 0.47281,0.6192 0.81933,0.7779 0.42338,0.16341 0.87059,0.17205 1.31,0.18643 0.47011,0.008 0.94026,0.004 1.41038,0.005 0.57864,0.0204 1.15343,0.1384 1.73167,0.19427 0.50682,0.0452 1.01504,0.0512 1.52291,0.0539 0.5321,0.0229 1.05476,0.0114 1.58051,-0.0901 0.45995,-0.0727 0.91354,-0.11879 1.34538,-0.34079 0.31359,-0.14213 0.0884,-0.0203 0.36124,-0.21799 0.0534,-0.0388 0.21717,-0.14686 0.1636,-0.10854 -4.10912,2.94033 -3.00951,2.26818 -2.1679,1.49511 0,0 2.77435,-1.44614 2.77435,-1.44614 v 0 c -0.11364,0.21846 -0.0671,0.18582 -0.23929,0.31221 -1.02554,0.7527 -2.08547,1.75976 -3.26128,2.25276 -0.45079,0.14727 -0.91214,0.2021 -1.3735,0.27751 -0.53439,0.0724 -1.07121,0.0523 -1.60809,0.0503 -0.51032,-0.009 -1.02118,-0.0214 -1.52949,-0.0832 -0.57191,-0.068 -1.14343,-0.17807 -1.71918,-0.16475 -0.47415,0.004 -0.94858,0.01 -1.42248,-0.0138 -0.46512,-0.0303 -0.93676,-0.0665 -1.37329,-0.28769 -0.40872,-0.2209 -0.80192,-0.4703 -0.94482,-1.03835 -0.17673,-0.563 -0.33051,-1.17327 -0.31388,-1.78191 0.0201,-0.60654 0.056,-1.2162 0.19638,-1.80126 0.18387,-0.57506 0.38761,-1.14896 0.75538,-1.58274 0.13871,-0.18592 0.31872,-0.31567 0.44744,-0.49112 0.12612,-0.17191 0.19149,-0.4013 0.38409,-0.49689 0.31556,-0.35837 -0.0179,0.002 0.32869,-0.31742 1.0056,-0.92683 2.07716,-1.81609 3.26081,-2.33035 0.48409,-0.10142 0.9434,0.0519 1.37032,0.34584 0.40309,0.30762 0.80816,0.65372 1.10784,1.11333 0.26249,0.46479 0.51333,0.93543 0.63977,1.48959 0.15846,0.67403 0.0669,1.10927 -0.25809,1.6827 -0.33953,0.61222 -0.54762,1.34111 -1.00497,1.85003 -0.61459,0.69274 -1.26017,1.34232 -1.93484,1.94144 -1.37769,1.20843 -2.81661,2.55186 -4.53371,2.7032 -0.62605,0.039 -1.25321,0.0112 -1.87988,0.0186 -0.56147,-0.003 -1.12657,0.007 -1.6841,-0.0872 -0.48455,-0.10369 -0.95901,-0.2652 -1.41985,-0.47922 -0.46773,-0.28591 -0.90307,-0.64729 -1.29046,-1.08207 -0.49975,-0.64115 -0.75171,-1.46174 -0.97312,-2.30116 -0.23317,-1.12378 -0.36048,-2.26285 -0.40041,-3.42279 -0.003,-0.82347 -0.008,-1.64698 0.006,-2.47038 0.03,-0.76572 0.0653,-1.5357 0.22323,-2.28046 0.18281,-0.95111 0.35322,-1.90405 0.41395,-2.88198 0.12652,-1.23917 0.16819,-2.50418 0.49491,-3.69751 0.23259,-0.86461 0.35124,-1.77241 0.4785,-2.66919 0.0971,-0.63562 0.13729,-1.28475 0.40397,-1.86088 0.0973,-0.2293 0.23775,-0.477 0.3124,-0.71854 0.0826,-0.26738 0.0856,-0.57641 0.16846,-0.84472 0.0766,-0.74562 0.20703,-1.47793 0.29065,-2.2204 0,0 2.7001,-1.64962 2.7001,-1.64962 z"
       inkscape:connector-curvature="0"
       transform="matrix(0.97576628,0,0,0.97803202,4.0400005,4.0634029)" />
    <path
       id="path3723-1"
       d="m 107.58577,142.44583 c 1.17913,-1.46969 2.2423,-3.0257 3.27105,-4.60334 1.64045,-2.66562 2.88093,-5.55353 4.11015,-8.42571 2.05285,-4.96223 4.20828,-9.87953 6.20539,-14.86498 1.43732,-3.66476 2.87401,-7.32864 4.11569,-11.06557 0.65056,-2.14991 1.22215,-4.324773 1.68384,-6.523503 0.0341,-0.18429 0.07,-0.36826 0.10243,-0.55287 0.0244,-0.13964 0.0751,-0.46139 0.0983,-0.62926 0.005,-0.0378 -0.0206,-0.0967 0.0134,-0.11365 3.06502,-1.53079 2.7872,-2.4787 3.06336,-1.16772 0.1502,1.06043 0.33021,2.11437 0.43585,3.18138 0.13322,1.24916 0.13454,2.506363 0.13218,3.760993 -0.0216,1.75151 -0.0374,3.50184 0.0581,5.25124 0.0789,1.02578 0.13867,2.05235 0.17835,3.08033 0.0187,0.81775 0.0126,1.63585 0.0189,2.45377 -0.003,0.74212 -7.9e-4,1.48419 0.004,2.22629 0.0311,0.48941 -0.0831,1.02477 0.11036,1.49049 0.31623,-1.15211 -0.0129,0.20747 -2.59507,1.21066 -0.20419,0.0793 0.28776,-0.33239 0.41233,-0.51308 0.75551,-1.09584 1.36643,-2.31947 2.02724,-3.47198 2.7059,-4.68348 5.41023,-9.36689 8.04002,-14.094013 4.25169,-7.85695 7.97675,-15.98491 11.82849,-24.04291 1.49062,-3.03065 2.84539,-6.1319 4.47742,-9.0907 0.66978,-1.15896 0.40441,-0.7879 3.06252,-1.91317 0.1252,-0.053 0.12615,0.2466 0.14795,0.38119 0.0319,0.19718 -0.16615,0.67537 -0.22715,0.86627 -0.1668,0.58344 -0.36596,1.15672 -0.54989,1.73481 -0.48012,1.40327 -1.2246,2.69146 -1.89582,4.00632 -0.30318,0.59393 -0.59493,1.19367 -0.8924,1.79049 -2.75238,5.98939 -5.48363,11.98884 -8.10405,18.03766 -2.13823,4.97381 -3.80424,10.142113 -4.82342,15.465113 -0.70821,3.69883 -0.7548,4.84696 -1.1622,8.60389 -0.62826,7.02725 -0.45419,14.09241 -0.15364,21.13126 0.0765,1.78609 0.18364,3.57059 0.29598,5.35467 0,0 -2.84819,1.46769 -2.84819,1.46769 v 0 c -8e-4,-1.83307 -0.007,-3.66613 -0.0206,-5.49916 -0.0308,-7.11245 -0.13418,-14.24037 0.47653,-21.33396 0.39717,-3.83305 0.42318,-4.84065 1.12335,-8.61558 0.9878,-5.32585 2.60318,-10.502663 4.73462,-15.478183 2.55197,-5.9815 5.2297,-11.90767 7.76721,-17.89546 0.26757,-0.58619 0.52757,-1.17591 0.80273,-1.75854 0.60067,-1.27189 1.28012,-2.51266 1.70912,-3.85918 0.17589,-0.58321 0.39377,-1.15271 0.55357,-1.73972 0.0545,-0.17091 0.21282,-0.76501 0.23115,-0.77127 0.0657,-0.0225 0.0983,0.16566 0.15993,0.13372 2.52683,-1.30987 3.51363,-2.51815 2.58509,-1.42819 -1.95613,2.95045 -3.39122,6.21443 -5.06419,9.3251 -4.01155,7.97812 -7.71614,16.10793 -11.80727,24.04591 -2.49958,4.674973 -5.06534,9.312293 -7.66771,13.930323 -0.25913,0.47439 -0.52179,0.94686 -0.7774,1.42318 -0.7136,1.32983 -2.58463,5.67043 -4.75319,4.22781 -0.20484,-0.51563 -0.14067,-1.07293 -0.14577,-1.61712 0.007,-0.74402 0.0105,-1.48802 0.007,-2.23206 0.006,-0.81571 0.002,-1.63136 -0.0129,-2.44695 -0.0155,-1.0369 -0.0641,-2.07263 -0.10942,-3.10855 -0.0684,-1.75257 -0.0468,-3.50518 -0.0719,-5.25869 -0.0193,-1.24275 -0.0323,-2.4869 -0.13409,-3.726313 -0.10394,-1.04739 -0.2746,-2.08019 -0.49138,-3.10868 -0.2899,-1.28114 -0.11513,-0.22911 2.88129,-1.85036 0.0335,-0.0182 -0.0355,0.068 -0.0469,0.10447 -0.0466,0.14748 -0.13206,0.54842 -0.15572,0.65595 -0.0419,0.1906 -0.0828,0.38141 -0.12427,0.57211 -0.54097,2.22968 -1.16022,4.441 -1.83745,6.632643 -1.29056,3.76539 -2.74928,7.46767 -4.25636,11.15068 -2.02676,4.95619 -4.21295,9.84583 -6.14632,14.84043 -1.14987,2.86311 -2.30383,5.75007 -3.90755,8.39463 -0.98869,1.54487 -2.01498,3.06393 -3.0985,4.54371 0,0 -3.04489,1.32524 -3.04489,1.32524 z"
       inkscape:connector-curvature="0"
       style="fill:#501616;stroke-width:0.07862997;filter:url(#filter6312)"
       transform="matrix(0.97576628,0,0,0.97803202,4.0400005,4.0634029)" />
  </g>
</svg>
